<svg width="23" height="23" viewBox="0 0 23 23" fill="none" xmlns="http://www.w3.org/2000/svg">
<path d="M11.0483 16.0361L11.2495 16.4386L11.4508 16.0361L12.3881 14.1613L12.4119 14.1138V14.0607V9.41074C14.0348 8.91215 15.224 7.41121 15.224 5.62429C15.224 3.43217 13.4416 1.64978 11.2495 1.64978C9.05742 1.64978 7.27503 3.43217 7.27503 5.62429C7.27503 7.41121 8.46422 8.91215 10.0872 9.41074V14.0607V14.1138L10.1109 14.1613L11.0483 16.0361ZM9.59974 5.62429C9.59974 4.7146 10.3398 3.97449 11.2495 3.97449C12.1592 3.97449 12.8993 4.7146 12.8993 5.62429C12.8993 6.53397 12.1592 7.27408 11.2495 7.27408C10.3398 7.27408 9.59974 6.53397 9.59974 5.62429Z" fill="#6970FE" stroke="#6970FE" stroke-width="0.449944"/>
<path d="M15.2486 9.90157L14.749 11.7088C17.1778 12.38 18.7479 13.6708 18.7479 14.9981C18.7479 16.7717 15.6686 18.7477 11.2488 18.7477C6.82907 18.7477 3.74977 16.7717 3.74977 14.9981C3.74977 13.6708 5.31988 12.38 7.74958 11.7079L7.24996 9.90063C3.93443 10.8174 1.875 12.77 1.875 14.9981C1.875 18.1515 5.99292 20.6224 11.2488 20.6224C16.5047 20.6224 20.6227 18.1515 20.6227 14.9981C20.6227 12.77 18.5632 10.8174 15.2486 9.90157Z" stroke="#6970FE" stroke-width="1.02844"/>
</svg>
