<svg width="127" height="36" viewBox="0 0 127 36" fill="none" xmlns="http://www.w3.org/2000/svg">
<path d="M14.3537 21.9389L13.589 21.5517L13.5852 21.5595L14.3537 21.9389ZM12.7426 23.8576L13.2426 24.5537L13.2489 24.549L12.7426 23.8576ZM1.43537 24.5752H0.578332V25.2142L1.1907 25.3966L1.43537 24.5752ZM1.43537 21.0161L1.71692 20.2067L0.578332 19.8106V21.0161H1.43537ZM4.3061 21.8217L4.12196 22.6587L4.13156 22.6608L4.1412 22.6627L4.3061 21.8217ZM10.5749 18.6434L9.91154 19.1861L9.92053 19.1971L9.92987 19.2077L10.5749 18.6434ZM8.0117 17.1348L7.72794 17.9435L7.73231 17.945L8.0117 17.1348ZM6.29804 16.505L5.98675 17.3035L5.99128 17.3052L6.29804 16.505ZM4.58439 15.7433L4.19575 16.5072L4.20111 16.5099L4.58439 15.7433ZM2.02123 13.1948L1.23968 13.5465L1.24324 13.5544L1.24696 13.5623L2.02123 13.1948ZM3.32478 7.18972L3.87986 7.84276L3.88608 7.83737L3.32478 7.18972ZM5.58036 5.9887L5.84094 6.8052L5.84878 6.80262L5.58036 5.9887ZM10.0915 5.59324L10.0103 6.44642L10.0211 6.44744L10.0319 6.4482L10.0915 5.59324ZM11.3218 5.72506L11.1977 6.57306L11.2091 6.57473L11.2205 6.57609L11.3218 5.72506ZM12.4936 5.91547L12.317 6.75412L12.3295 6.75676L12.3422 6.75902L12.4936 5.91547ZM13.5335 6.13517H14.3905V5.46601L13.7413 5.30372L13.5335 6.13517ZM13.5335 9.43065L13.2325 10.2331L14.3905 10.6674V9.43065H13.5335ZM11.3511 8.85944L11.183 9.69983L11.1949 9.70221L11.2069 9.70425L11.3511 8.85944ZM7.41118 8.7862L7.5971 9.62283L7.60592 9.62087L7.61469 9.61873L7.41118 8.7862ZM6.32734 9.21095L6.7793 9.93913L6.78823 9.93359L6.79701 9.92783L6.32734 9.21095ZM5.91723 11.7888L5.2802 12.3621L5.29025 12.3732L5.30068 12.3841L5.91723 11.7888ZM6.98643 12.565L6.58312 13.3212L6.59307 13.3265L6.60316 13.3316L6.98643 12.565ZM8.49503 13.2095L8.19875 14.0137L8.20717 14.0168L8.21565 14.0197L8.49503 13.2095ZM10.2233 13.8539L9.90504 14.6497L9.91297 14.6528L9.92097 14.6559L10.2233 13.8539ZM11.9516 14.6302L11.5525 15.3886L11.5579 15.3914L11.9516 14.6302ZM13.4602 15.6994L12.8681 16.3191L12.875 16.3255L13.4602 15.6994ZM14.5294 17.1934L13.7501 17.55L13.7538 17.558L13.7576 17.566L14.5294 17.1934ZM14.0825 19.2146C14.0825 20.1526 13.9075 20.9228 13.5891 21.5517L15.1183 22.326C15.581 21.4121 15.7966 20.3662 15.7966 19.2146H14.0825ZM13.5852 21.5595C13.2653 22.2074 12.8181 22.7399 12.2362 23.1661L13.2489 24.549C14.0535 23.9597 14.6804 23.2131 15.1222 22.3182L13.5852 21.5595ZM12.2426 23.1615C11.6486 23.5881 10.9248 23.9185 10.0554 24.1403L10.4791 25.8011C11.5236 25.5347 12.4499 25.123 13.2425 24.5536L12.2426 23.1615ZM10.0554 24.1403C9.17701 24.3644 8.20436 24.4798 7.1329 24.4798V26.1939C8.32679 26.1939 9.44372 26.0653 10.4791 25.8011L10.0554 24.1403ZM7.1329 24.4798C6.16044 24.4798 5.22447 24.4232 4.32453 24.3107L4.11192 26.0115C5.08675 26.1334 6.09389 26.1939 7.1329 26.1939V24.4798ZM4.32453 24.3107C3.43463 24.1995 2.55327 24.014 1.68003 23.7539L1.1907 25.3966C2.15318 25.6833 3.12705 25.8884 4.11192 26.0115L4.32453 24.3107ZM2.2924 24.5752V21.0161H0.578332V24.5752H2.2924ZM1.15381 21.8256C1.62068 21.988 2.10626 22.1397 2.61036 22.2808L3.07253 20.6302C2.60018 20.498 2.14838 20.3567 1.71692 20.2067L1.15381 21.8256ZM2.61036 22.2808C3.11389 22.4218 3.61776 22.5478 4.12196 22.6587L4.49025 20.9847C4.018 20.8808 3.54543 20.7626 3.07253 20.6302L2.61036 22.2808ZM4.1412 22.6627C4.65932 22.7643 5.17337 22.8458 5.6833 22.907L5.88752 21.2051C5.42101 21.1491 4.94885 21.0744 4.47101 20.9807L4.1412 22.6627ZM5.6833 22.907C6.20302 22.9693 6.71076 23.0009 7.20613 23.0009V21.2869C6.78365 21.2869 6.34424 21.2599 5.88752 21.2051L5.6833 22.907ZM7.20613 23.0009C7.93396 23.0009 8.58765 22.939 9.15294 22.8006L8.74522 21.1357C8.3536 21.2316 7.84532 21.2869 7.20613 21.2869V23.0009ZM9.15294 22.8006C9.69807 22.6671 10.1909 22.4725 10.6015 22.1944L9.64014 20.7753C9.44532 20.9072 9.157 21.0349 8.74522 21.1357L9.15294 22.8006ZM10.6015 22.1944C11.0086 21.9186 11.3393 21.565 11.5517 21.1251L10.0081 20.3799C9.94708 20.5063 9.83837 20.641 9.64014 20.7753L10.6015 22.1944ZM11.5517 21.1251C11.7493 20.7159 11.842 20.2745 11.842 19.8151H10.1279C10.1279 20.0392 10.084 20.2228 10.0081 20.3799L11.5517 21.1251ZM11.842 19.8151C11.842 19.1674 11.6477 18.568 11.2198 18.079L9.92987 19.2077C10.0488 19.3437 10.1279 19.5254 10.1279 19.8151H11.842ZM11.2382 18.1007C10.8933 17.6792 10.4515 17.3308 9.93651 17.0447L9.10408 18.5431C9.46794 18.7452 9.7291 18.9631 9.91154 19.1861L11.2382 18.1007ZM9.93651 17.0447C9.44601 16.7722 8.89603 16.5332 8.29108 16.3246L7.73231 17.945C8.26003 18.127 8.71579 18.3273 9.10408 18.5431L9.93651 17.0447ZM8.29545 16.3261C7.74706 16.1337 7.18352 15.9266 6.60481 15.7047L5.99128 17.3052C6.58429 17.5325 7.16319 17.7453 7.72794 17.9435L8.29545 16.3261ZM6.60932 15.7065C6.05828 15.4916 5.51107 15.2485 4.96767 14.9768L4.20111 16.5099C4.79038 16.8045 5.38561 17.0691 5.98676 17.3035L6.60932 15.7065ZM4.97302 14.9795C4.48887 14.7332 4.05984 14.4297 3.68252 14.0692L2.49834 15.3084C2.99982 15.7876 3.56677 16.1872 4.19576 16.5072L4.97302 14.9795ZM3.68252 14.0692C3.32241 13.725 3.02631 13.3137 2.7955 12.8274L1.24696 13.5623C1.56296 14.2281 1.97966 14.8128 2.49834 15.3084L3.68252 14.0692ZM2.80278 12.8431C2.60065 12.3939 2.48281 11.817 2.48281 11.0857H0.768738C0.768738 11.9949 0.91454 12.824 1.23968 13.5465L2.80278 12.8431ZM2.48281 11.0857C2.48281 10.4405 2.59957 9.83746 2.83002 9.26958L1.24174 8.62506C0.925378 9.40466 0.768738 10.2272 0.768738 11.0857H2.48281ZM2.83002 9.26958C3.04854 8.73109 3.39291 8.25662 3.87984 7.84273L2.76972 6.53671C2.08492 7.11879 1.57003 7.81605 1.24174 8.62506L2.83002 9.26958ZM3.88608 7.83737C4.36564 7.42175 5.00769 7.07109 5.84093 6.80516L5.31979 5.17224C4.31732 5.49217 3.45565 5.94219 2.76348 6.54207L3.88608 7.83737ZM5.84878 6.80262C6.65603 6.53639 7.66841 6.39169 8.90514 6.39169V4.67762C7.54453 4.67762 6.34039 4.83561 5.31194 5.17478L5.84878 6.80262ZM8.90514 6.39169C9.25673 6.39169 9.625 6.40973 10.0103 6.44642L10.1728 4.74007C9.73782 4.69864 9.31518 4.67762 8.90514 4.67762V6.39169ZM10.0319 6.4482C10.431 6.47605 10.8196 6.51773 11.1977 6.57306L11.4459 4.87706C11.0234 4.81522 10.5917 4.76902 10.1512 4.73828L10.0319 6.4482ZM11.2205 6.57609C11.6076 6.62217 11.9729 6.68168 12.317 6.75412L12.6701 5.07681C12.2721 4.99302 11.8563 4.9256 11.4231 4.87403L11.2205 6.57609ZM12.3422 6.75902C12.7076 6.82462 13.0351 6.89398 13.3256 6.96661L13.7413 5.30372C13.4069 5.22012 13.0411 5.14301 12.645 5.07191L12.3422 6.75902ZM12.6764 6.13517V9.43065H14.3905V6.13517H12.6764ZM13.8344 8.62819C13.4911 8.49946 13.1213 8.38357 12.7263 8.27961L12.2901 9.93725C12.6372 10.0286 12.9509 10.1275 13.2325 10.2331L13.8344 8.62819ZM12.7263 8.27961C12.3295 8.17519 11.9191 8.08697 11.4954 8.01462L11.2069 9.70425C11.5838 9.7686 11.9448 9.84638 12.2901 9.93725L12.7263 8.27961ZM11.5192 8.01904C11.1003 7.93526 10.6765 7.8725 10.248 7.83069L10.0815 9.53666C10.4537 9.57297 10.8208 9.62738 11.183 9.69983L11.5192 8.01904ZM10.248 7.83069C9.82302 7.78923 9.41429 7.76805 9.02231 7.76805V9.48213C9.3529 9.48213 9.70579 9.5 10.0815 9.53666L10.248 7.83069ZM9.02231 7.76805C8.34426 7.76805 7.73438 7.82493 7.20768 7.95368L7.61469 9.61873C7.96679 9.53266 8.431 9.48213 9.02231 9.48213V7.76805ZM7.22527 7.94957C6.7162 8.0627 6.25073 8.23654 5.85766 8.49408L6.79701 9.92783C6.97027 9.81432 7.22738 9.70499 7.5971 9.62283L7.22527 7.94957ZM5.87537 8.48278C5.4735 8.73222 5.14706 9.06817 4.93999 9.49826L6.48437 10.2418C6.53117 10.1447 6.61484 10.0412 6.7793 9.93913L5.87537 8.48278ZM4.93999 9.49826C4.75175 9.88921 4.66474 10.3111 4.66474 10.7488H6.37881C6.37881 10.5422 6.41873 10.3782 6.48437 10.2418L4.93999 9.49826ZM4.66474 10.7488C4.66474 11.3572 4.87247 11.909 5.2802 12.3621L6.55426 11.2154C6.43472 11.0826 6.37881 10.9412 6.37881 10.7488H4.66474ZM5.30068 12.3841C5.65028 12.7461 6.08462 13.0554 6.58312 13.3212L7.38974 11.8088C7.00945 11.606 6.73098 11.3977 6.53378 11.1935L5.30068 12.3841ZM6.60316 13.3316C7.08511 13.5726 7.61765 13.7996 8.19875 14.0137L8.79132 12.4053C8.25927 12.2093 7.78608 12.0067 7.36971 11.7985L6.60316 13.3316ZM8.21565 14.0197C8.76823 14.2102 9.33135 14.4202 9.90504 14.6497L10.5416 13.0582C9.94359 12.819 9.35451 12.5993 8.77442 12.3993L8.21565 14.0197ZM9.92097 14.6559C10.4839 14.8681 11.0276 15.1124 11.5525 15.3886L12.3508 13.8718C11.7625 13.5622 11.1541 13.2889 10.5257 13.052L9.92097 14.6559ZM11.5579 15.3914C12.0553 15.6487 12.4906 15.9583 12.8681 16.319L14.0523 15.0798C13.5511 14.6008 12.9807 14.1976 12.3454 13.869L11.5579 15.3914ZM12.875 16.3255C13.24 16.6667 13.5315 17.0723 13.7501 17.55L15.3087 16.8367C15.0001 16.1622 14.5788 15.5718 14.0455 15.0733L12.875 16.3255ZM13.7576 17.566C13.963 17.9914 14.0825 18.532 14.0825 19.2146H15.7966C15.7966 18.3349 15.6426 17.528 15.3012 16.8208L13.7576 17.566ZM31.2559 14.7181L32.0529 15.0332L32.0541 15.03L31.2559 14.7181ZM22.1017 18.8484V17.9914H21.2447V18.8484H22.1017ZM22.1017 25V25.857H22.9588V25H22.1017ZM18.4694 25H17.6123V25.857H18.4694V25ZM18.4694 5.85688V4.99984H17.6123V5.85688H18.4694ZM27.3599 6.26699L27.1222 7.09046L27.1322 7.09324L27.3599 6.26699ZM29.7619 7.43871L29.2253 8.10698L29.2302 8.11087L29.7619 7.43871ZM31.2412 9.35742L30.4555 9.69992L30.461 9.71206L31.2412 9.35742ZM27.726 10.8221L26.9228 11.121L26.927 11.1324L26.9316 11.1436L27.726 10.8221ZM26.9937 9.75288L26.4171 10.3871L26.4267 10.3955L26.9937 9.75288ZM25.7634 9.07913L26.0199 8.2614L25.7634 9.07913ZM22.1017 8.84479V7.98775H21.2447V8.84479H22.1017ZM22.1017 15.8605H21.2447V16.7176H22.1017V15.8605ZM25.7634 15.6115L26.0443 16.4212L26.0516 16.4187L26.0589 16.416L25.7634 15.6115ZM26.9644 14.8645L26.3674 14.2495L26.3584 14.2585L26.9644 14.8645ZM27.7114 13.7075L26.9133 13.3952L26.9103 13.4027L26.9075 13.4104L27.7114 13.7075ZM30.8968 11.9499C30.8968 12.8489 30.7473 13.6648 30.4576 14.4061L32.0541 15.03C32.4284 14.0723 32.6109 13.0427 32.6109 11.9499H30.8968ZM30.4589 14.403C30.173 15.1261 29.7513 15.7478 29.1895 16.2761L30.3636 17.5248C31.1103 16.8228 31.6748 15.9895 32.0529 15.0332L30.4589 14.403ZM29.1895 16.2761C28.6349 16.7976 27.9279 17.2187 27.0475 17.5269L27.6137 19.1447C28.6861 18.7694 29.6098 18.2336 30.3636 17.5248L29.1895 16.2761ZM27.0475 17.5269C26.1812 17.83 25.1478 17.9914 23.9326 17.9914V19.7055C25.2951 19.7055 26.527 19.525 27.6137 19.1447L27.0475 17.5269ZM23.9326 17.9914H22.1017V19.7055H23.9326V17.9914ZM21.2447 18.8484V25H22.9588V18.8484H21.2447ZM22.1017 24.143H18.4694V25.857H22.1017V24.143ZM19.3264 25V5.85688H17.6123V25H19.3264ZM18.4694 6.71392H24.079V4.99984H18.4694V6.71392ZM24.079 6.71392C25.2584 6.71392 26.2692 6.84418 27.1222 7.0904L27.5976 5.44357C26.5563 5.14299 25.3798 4.99984 24.079 4.99984V6.71392ZM27.1322 7.09324C27.9986 7.33194 28.6884 7.67579 29.2253 8.10696L30.2985 6.77047C29.5466 6.16661 28.6349 5.72931 27.5875 5.44073L27.1322 7.09324ZM29.2302 8.11087C29.7744 8.54138 30.1801 9.06789 30.4556 9.69988L32.0269 9.01496C31.6384 8.1237 31.0578 7.37107 30.2936 6.76656L29.2302 8.11087ZM30.461 9.71206C30.7437 10.3341 30.8968 11.0737 30.8968 11.9499H32.6109C32.6109 10.8731 32.4222 9.88446 32.0214 9.00278L30.461 9.71206ZM28.8321 12.1989C28.8321 11.597 28.7334 11.0267 28.5205 10.5005L26.9316 11.1436C27.0506 11.4376 27.118 11.7852 27.118 12.1989H28.8321ZM28.5293 10.5232C28.3244 9.97268 27.9999 9.49771 27.5607 9.11024L26.4267 10.3955C26.6515 10.5939 26.8152 10.8317 26.9228 11.121L28.5293 10.5232ZM27.5702 9.11872C27.1395 8.72715 26.6134 8.44759 26.0199 8.2614L25.5068 9.89687C25.9093 10.0231 26.2035 10.1927 26.4172 10.387L27.5702 9.11872ZM26.0199 8.2614C25.4178 8.07249 24.7363 7.98775 23.9911 7.98775V9.70183C24.613 9.70183 25.113 9.77332 25.5068 9.89687L26.0199 8.2614ZM23.9911 7.98775H22.1017V9.70183H23.9911V7.98775ZM21.2447 8.84479V15.8605H22.9588V8.84479H21.2447ZM22.1017 16.7176H24.1083V15.0035H22.1017V16.7176ZM24.1083 16.7176C24.8073 16.7176 25.4572 16.6249 26.0443 16.4212L25.4825 14.8018C25.1127 14.9301 24.6591 15.0035 24.1083 15.0035V16.7176ZM26.0589 16.416C26.6401 16.2025 27.1504 15.8906 27.5704 15.4706L26.3584 14.2585C26.134 14.483 25.8436 14.669 25.4679 14.807L26.0589 16.416ZM27.5613 15.4795C27.9884 15.065 28.3065 14.5695 28.5153 14.0046L26.9075 13.4104C26.7843 13.7438 26.6044 14.0197 26.3675 14.2496L27.5613 15.4795ZM28.5095 14.0198C28.7297 13.457 28.8321 12.8461 28.8321 12.1989H27.118C27.118 12.6648 27.0446 13.0596 26.9133 13.3952L28.5095 14.0198ZM48.3192 19.8444L47.5042 19.5791L47.5024 19.5848L48.3192 19.8444ZM46.6495 22.9495L46.0059 22.3835L46.0021 22.3879L46.6495 22.9495ZM44.1595 24.751L43.8357 23.9575L43.8328 23.9587L44.1595 24.751ZM35.4301 22.8323L34.7464 23.3491L34.7479 23.351L35.4301 22.8323ZM34.1266 11.0271L33.3116 10.7618L33.3098 10.7675L34.1266 11.0271ZM35.7963 7.92205L35.1528 7.35603L35.1489 7.36046L35.7963 7.92205ZM38.2862 6.12052L37.9624 5.32703L37.9595 5.32821L38.2862 6.12052ZM47.0303 8.03923L46.348 8.5579L47.0303 8.03923ZM39.458 9.2256L39.888 9.96704L39.8989 9.9605L39.458 9.2256ZM38.2423 10.4852L37.5005 10.0558L37.495 10.0657L38.2423 10.4852ZM37.5539 12.5504L38.3973 12.7028L38.3976 12.701L37.5539 12.5504ZM38.2423 20.4156L37.4894 20.8251L37.4922 20.8301L38.2423 20.4156ZM43.0024 21.6606L43.4324 22.4019L43.437 22.3993L43.0024 21.6606ZM44.9065 18.3358L45.7499 18.4882L45.7502 18.4865L44.9065 18.3358ZM48.0773 15.3479C48.0773 17.0223 47.8793 18.4271 47.5042 19.5791L49.1341 20.1097C49.5793 18.7425 49.7914 17.1496 49.7914 15.3479H48.0773ZM47.5024 19.5848C47.1301 20.7561 46.6249 21.6797 46.0059 22.3835L47.293 23.5155C48.0996 22.5984 48.7075 21.4519 49.1359 20.104L47.5024 19.5848ZM46.0021 22.3879C45.3837 23.1007 44.6632 23.6197 43.8357 23.9575L44.4834 25.5445C45.5697 25.1011 46.5091 24.4191 47.2968 23.5111L46.0021 22.3879ZM43.8328 23.9587C42.9952 24.3041 42.0914 24.4798 41.113 24.4798V26.1939C42.3024 26.1939 43.4296 25.9791 44.4863 25.5433L43.8328 23.9587ZM41.113 24.4798C38.8012 24.4798 37.1864 23.7263 36.1124 22.3136L34.7479 23.351C36.2127 25.2777 38.3864 26.1939 41.113 26.1939V24.4798ZM36.1139 22.3155C35.0018 20.8441 34.3831 18.6214 34.3831 15.5236H32.6691C32.6691 18.8118 33.3198 21.4615 34.7464 23.3491L36.1139 22.3155ZM34.3831 15.5236C34.3831 13.8476 34.5766 12.4407 34.9434 11.2867L33.3098 10.7675C32.8759 12.1328 32.6691 13.7236 32.6691 15.5236H34.3831ZM34.9415 11.2925C35.3242 10.117 35.8312 9.18978 36.4437 8.48365L35.1489 7.36046C34.3554 8.27522 33.7492 9.41806 33.3117 10.7618L34.9415 11.2925ZM36.4399 8.48806C37.0706 7.77093 37.7939 7.2506 38.613 6.91283L37.9595 5.32821C36.8843 5.7716 35.9477 6.45228 35.1528 7.35605L36.4399 8.48806ZM38.6101 6.914C39.4592 6.56742 40.3691 6.39169 41.3474 6.39169V4.67762C40.158 4.67762 39.0271 4.89246 37.9624 5.32703L38.6101 6.914ZM41.3474 6.39169C43.6592 6.39169 45.274 7.14524 46.348 8.5579L47.7125 7.52055C46.2477 5.59379 44.074 4.67762 41.3474 4.67762V6.39169ZM46.348 8.5579C47.4582 10.0182 48.0773 12.2392 48.0773 15.3479H49.7914C49.7914 12.0511 49.1411 9.39968 47.7125 7.52055L46.348 8.5579ZM45.9832 15.5236C45.9832 13.2117 45.6794 11.349 44.971 10.0464L43.4652 10.8654C43.9676 11.7891 44.2692 13.3049 44.2692 15.5236H45.9832ZM44.971 10.0464C44.5998 9.36387 44.0898 8.82133 43.4352 8.45549C42.7846 8.09193 42.0385 7.92917 41.2302 7.92917V9.64324C41.8084 9.64324 42.2536 9.75876 42.599 9.95177C42.9403 10.1425 43.2311 10.4348 43.4652 10.8654L44.971 10.0464ZM41.2302 7.92917C40.4154 7.92917 39.6647 8.10208 39.017 8.4907L39.8989 9.9605C40.2277 9.76325 40.6585 9.64324 41.2302 9.64324V7.92917ZM39.028 8.48424C38.3932 8.85238 37.8871 9.38818 37.5006 10.0558L38.984 10.9146C39.2419 10.4691 39.5462 10.1652 39.888 9.96696L39.028 8.48424ZM37.495 10.0657C37.1237 10.727 36.8687 11.5123 36.7102 12.3997L38.3976 12.701C38.5321 11.948 38.736 11.3566 38.9896 10.9048L37.495 10.0657ZM36.7105 12.398C36.5529 13.2704 36.4772 14.2556 36.4772 15.3479H38.1912C38.1912 14.331 38.262 13.4513 38.3973 12.7028L36.7105 12.398ZM36.4772 15.3479C36.4772 17.6598 36.781 19.5225 37.4894 20.8251L38.9952 20.0061C38.4928 19.0824 38.1912 17.5666 38.1912 15.3479H36.4772ZM37.4922 20.8301C37.868 21.5102 38.3793 22.051 39.0326 22.416C39.6823 22.7791 40.4256 22.9424 41.2302 22.9424V21.2283C40.658 21.2283 40.215 21.1132 39.8687 20.9198C39.526 20.7282 39.2318 20.4342 38.9924 20.0011L37.4922 20.8301ZM41.2302 22.9424C42.0402 22.9424 42.7868 22.7764 43.4324 22.4019L42.5725 20.9192C42.2416 21.1111 41.8067 21.2283 41.2302 21.2283V22.9424ZM43.437 22.3993C44.079 22.0216 44.5868 21.4804 44.9654 20.8059L43.4708 19.9668C43.2246 20.4054 42.9219 20.7137 42.5679 20.9219L43.437 22.3993ZM44.9654 20.8059C45.3358 20.1461 45.5911 19.3666 45.7499 18.4882L44.0631 18.1834C43.9289 18.9259 43.7253 19.5134 43.4708 19.9668L44.9654 20.8059ZM45.7502 18.4865C45.9075 17.6055 45.9832 16.6161 45.9832 15.5236H44.2692C44.2692 16.5403 44.1984 17.4257 44.0628 18.1851L45.7502 18.4865ZM59.5678 8.85944V8.0024H58.7107V8.85944H59.5678ZM59.5678 25V25.857H60.4248V25H59.5678ZM55.8768 25H55.0198V25.857H55.8768V25ZM55.8768 8.85944H56.7339V8.0024H55.8768V8.85944ZM50.6333 8.85944H49.7763V9.71647H50.6333V8.85944ZM50.6333 5.85688V4.99984H49.7763V5.85688H50.6333ZM64.8112 5.85688H65.6683V4.99984H64.8112V5.85688ZM64.8112 8.85944V9.71647H65.6683V8.85944H64.8112ZM58.7107 8.85944V25H60.4248V8.85944H58.7107ZM59.5678 24.143H55.8768V25.857H59.5678V24.143ZM56.7339 25V8.85944H55.0198V25H56.7339ZM55.8768 8.0024H50.6333V9.71647H55.8768V8.0024ZM51.4904 8.85944V5.85688H49.7763V8.85944H51.4904ZM50.6333 6.71392H64.8112V4.99984H50.6333V6.71392ZM63.9542 5.85688V8.85944H65.6683V5.85688H63.9542ZM64.8112 8.0024H59.5678V9.71647H64.8112V8.0024Z" fill="#6970FE"/>
<path d="M15.795 20.0716C15.795 21.1164 15.5997 22.0245 15.2091 22.7959C14.8283 23.5673 14.2913 24.2069 13.598 24.7146C12.9047 25.2126 12.0797 25.5837 11.1227 25.8278C10.1658 26.0719 9.12104 26.1939 7.98837 26.1939C6.98263 26.1939 6.01108 26.1353 5.07369 26.0182C4.13631 25.901 3.20869 25.7057 2.29084 25.4323V21.8732C2.74 22.0294 3.20869 22.1759 3.69691 22.3126C4.18513 22.4493 4.67335 22.5713 5.16157 22.6787C5.65956 22.7764 6.15266 22.8545 6.64088 22.9131C7.1291 22.9717 7.60267 23.001 8.0616 23.001C8.74511 23.001 9.32609 22.9424 9.80455 22.8252C10.283 22.708 10.6736 22.5469 10.9763 22.3419C11.279 22.1368 11.4987 21.8927 11.6354 21.6095C11.7721 21.3264 11.8404 21.0139 11.8404 20.6722C11.8404 20.2035 11.7037 19.8129 11.4303 19.5004C11.1667 19.1782 10.8152 18.895 10.3758 18.6509C9.93637 18.4068 9.4335 18.1871 8.86716 17.9918C8.31059 17.7965 7.73938 17.5866 7.15351 17.362C6.57741 17.1374 6.00619 16.8836 5.43986 16.6004C4.88329 16.3172 4.3853 15.9657 3.9459 15.5458C3.50651 15.126 3.1501 14.628 2.8767 14.0519C2.61306 13.466 2.48124 12.763 2.48124 11.9428C2.48124 11.1909 2.61794 10.4781 2.89135 9.80437C3.16475 9.13063 3.59438 8.54476 4.18025 8.04678C4.76611 7.53903 5.51797 7.13869 6.43583 6.84576C7.35368 6.54306 8.46194 6.39171 9.76061 6.39171C10.1414 6.39171 10.5369 6.41124 10.947 6.4503C11.3669 6.47959 11.777 6.52353 12.1773 6.58212C12.5874 6.63094 12.978 6.69441 13.349 6.77252C13.7298 6.84087 14.0765 6.91411 14.3889 6.99222V10.2877C14.0765 10.1705 13.7347 10.0631 13.3637 9.96548C12.9926 9.86784 12.6069 9.78484 12.2066 9.71649C11.816 9.63838 11.4206 9.57979 11.0202 9.54073C10.6199 9.50167 10.2391 9.48215 9.87778 9.48215C9.24309 9.48215 8.70605 9.53585 8.26665 9.64326C7.82726 9.7409 7.46597 9.88249 7.1828 10.068C6.89964 10.2438 6.69458 10.4635 6.56765 10.7271C6.44071 10.9907 6.37724 11.2837 6.37724 11.6059C6.37724 12.0062 6.50906 12.3529 6.7727 12.6458C7.0461 12.929 7.4025 13.1877 7.8419 13.4221C8.29106 13.6467 8.79393 13.8615 9.3505 14.0665C9.91684 14.2618 10.4929 14.4766 11.0788 14.711C11.6744 14.9356 12.2505 15.1943 12.8071 15.4873C13.3734 15.7802 13.8763 16.1366 14.3157 16.5565C14.7649 16.9763 15.1213 17.4743 15.3849 18.0504C15.6583 18.6167 15.795 19.2905 15.795 20.0716ZM32.6093 12.8069C32.6093 13.8029 32.4433 14.7256 32.1113 15.5751C31.7793 16.4149 31.2862 17.1423 30.632 17.7575C29.9778 18.3726 29.1625 18.8511 28.186 19.1928C27.2096 19.5346 26.0769 19.7055 24.788 19.7055H22.9572V25.8571H19.3248V6.71394H24.9345C26.1746 6.71394 27.2682 6.85064 28.2153 7.12404C29.1722 7.38768 29.9729 7.77826 30.6174 8.29577C31.2716 8.81328 31.7647 9.45285 32.0967 10.2145C32.4384 10.9663 32.6093 11.8305 32.6093 12.8069ZM28.8305 13.0559C28.8305 12.5482 28.7475 12.0892 28.5815 11.6791C28.4253 11.2593 28.1812 10.9029 27.8492 10.6099C27.5269 10.317 27.1168 10.0924 26.6189 9.93619C26.1209 9.77996 25.5301 9.70184 24.8466 9.70184H22.9572V16.7176H24.9638C25.5887 16.7176 26.1404 16.6346 26.6189 16.4686C27.0973 16.2928 27.4977 16.0438 27.8199 15.7216C28.1519 15.3994 28.4009 15.0137 28.5669 14.5645C28.7426 14.1154 28.8305 13.6125 28.8305 13.0559ZM49.7898 16.2049C49.7898 17.943 49.5847 19.4418 49.1746 20.7014C48.7743 21.9611 48.2177 22.9961 47.5049 23.8065C46.8019 24.617 45.9719 25.2175 45.015 25.6081C44.0679 25.9986 43.0524 26.1939 41.9685 26.1939C39.4493 26.1939 37.555 25.3591 36.2856 23.6894C35.0162 22.0099 34.3816 19.5737 34.3816 16.3807C34.3816 14.6426 34.5817 13.1438 34.9821 11.8842C35.3922 10.6246 35.9487 9.58955 36.6518 8.77911C37.3646 7.96866 38.1946 7.36815 39.1417 6.97758C40.0986 6.587 41.119 6.39171 42.2028 6.39171C44.7221 6.39171 46.6164 7.22657 47.8857 8.89628C49.1551 10.566 49.7898 13.0022 49.7898 16.2049ZM45.9817 16.3807C45.9817 14.1154 45.679 12.4261 45.0736 11.313C44.4682 10.1998 43.4722 9.64326 42.0857 9.64326C41.3924 9.64326 40.8017 9.78972 40.3134 10.0827C39.8252 10.3658 39.42 10.7857 39.0978 11.3423C38.7853 11.8988 38.5558 12.5872 38.4094 13.4074C38.2629 14.2179 38.1897 15.1504 38.1897 16.2049C38.1897 18.4703 38.4924 20.1595 39.0978 21.2727C39.7129 22.3858 40.7089 22.9424 42.0857 22.9424C42.7789 22.9424 43.3697 22.8008 43.8579 22.5176C44.3559 22.2247 44.7611 21.7999 45.0736 21.2434C45.386 20.6868 45.6155 20.0033 45.762 19.1928C45.9084 18.3726 45.9817 17.4353 45.9817 16.3807ZM60.4232 9.71649V25.8571H56.7323V9.71649H51.4888V6.71394H65.6667V9.71649H60.4232Z" fill="#6970FE"/>
<path d="M78.7553 21.3927L78.9566 21.7951L79.1578 21.3927L80.0952 19.5179L80.1189 19.4704V19.4173V14.7673C81.7419 14.2687 82.9311 12.7678 82.9311 10.9809C82.9311 8.78874 81.1487 7.00635 78.9566 7.00635C76.7644 7.00635 74.9821 8.78874 74.9821 10.9809C74.9821 12.7678 76.1713 14.2687 77.7942 14.7673V19.4173V19.4704L77.818 19.5179L78.7553 21.3927ZM77.3068 10.9809C77.3068 10.0712 78.0469 9.33106 78.9566 9.33106C79.8662 9.33106 80.6064 10.0712 80.6064 10.9809C80.6064 11.8905 79.8662 12.6306 78.9566 12.6306C78.0469 12.6306 77.3068 11.8905 77.3068 10.9809Z" fill="#6970FE" stroke="#6970FE" stroke-width="0.449944"/>
<path d="M82.9557 15.2581L82.4561 17.0654C84.8848 17.7366 86.4549 19.0274 86.4549 20.3547C86.4549 22.1282 83.3756 24.1042 78.9559 24.1042C74.5361 24.1042 71.4568 22.1282 71.4568 20.3547C71.4568 19.0274 73.0269 17.7366 75.4566 17.0645L74.957 15.2572C71.6415 16.174 69.582 18.1265 69.582 20.3547C69.582 23.508 73.7 25.979 78.9559 25.979C84.2118 25.979 88.3297 23.508 88.3297 20.3547C88.3297 18.1265 86.2703 16.174 82.9557 15.2581Z" stroke="#6970FE" stroke-width="1.02844"/>
<path d="M94.8689 8.91218H94.119V9.66208H94.8689V8.91218ZM94.8689 5.96821V5.2183H94.119V5.96821H94.8689ZM106.967 5.96821H107.717V5.2183H106.967V5.96821ZM106.967 8.91218V9.66208H107.717V8.91218H106.967ZM102.749 8.91218V8.16227H101.999V8.91218H102.749ZM102.749 22.1381H101.999V22.888H102.749V22.1381ZM106.967 22.1381H107.717V21.3882H106.967V22.1381ZM106.967 25.1113V25.8612H107.717V25.1113H106.967ZM94.8689 25.1113H94.119V25.8612H94.8689V25.1113ZM94.8689 22.1381V21.3882H94.119V22.1381H94.8689ZM99.0871 22.1381V22.888H99.837V22.1381H99.0871ZM99.0871 8.91218H99.837V8.16227H99.0871V8.91218ZM95.6188 8.91218V5.96821H94.119V8.91218H95.6188ZM94.8689 6.71811H106.967V5.2183H94.8689V6.71811ZM106.217 5.96821V8.91218H107.717V5.96821H106.217ZM106.967 8.16227H102.749V9.66208H106.967V8.16227ZM101.999 8.91218V22.1381H103.499V8.91218H101.999ZM102.749 22.888H106.967V21.3882H102.749V22.888ZM106.217 22.1381V25.1113H107.717V22.1381H106.217ZM106.967 24.3614H94.8689V25.8612H106.967V24.3614ZM95.6188 25.1113V22.1381H94.119V25.1113H95.6188ZM94.8689 22.888H99.0871V21.3882H94.8689V22.888ZM99.837 22.1381V8.91218H98.3372V22.1381H99.837ZM99.0871 8.16227H94.8689V9.66208H99.0871V8.16227ZM119.255 8.97076V8.22086H118.506V8.97076H119.255ZM119.255 25.1113V25.8612H120.005V25.1113H119.255ZM115.565 25.1113H114.815V25.8612H115.565V25.1113ZM115.565 8.97076H116.314V8.22086H115.565V8.97076ZM110.321 8.97076H109.571V9.72067H110.321V8.97076ZM110.321 5.96821V5.2183H109.571V5.96821H110.321ZM124.499 5.96821H125.249V5.2183H124.499V5.96821ZM124.499 8.97076V9.72067H125.249V8.97076H124.499ZM118.506 8.97076V25.1113H120.005V8.97076H118.506ZM119.255 24.3614H115.565V25.8612H119.255V24.3614ZM116.314 25.1113V8.97076H114.815V25.1113H116.314ZM115.565 8.22086H110.321V9.72067H115.565V8.22086ZM111.071 8.97076V5.96821H109.571V8.97076H111.071ZM110.321 6.71811H124.499V5.2183H110.321V6.71811ZM123.749 5.96821V8.97076H125.249V5.96821H123.749ZM124.499 8.22086H119.255V9.72067H124.499V8.22086Z" fill="#6970FE"/>
<path d="M95.615 9.6579V6.71394H107.713V9.6579H103.495V22.8838H107.713V25.8571H95.615V22.8838H99.8332V9.6579H95.615ZM120.002 9.71649V25.8571H116.311V9.71649H111.067V6.71394H125.245V9.71649H120.002Z" fill="#6970FE"/>
</svg>
