<svg width="36" height="34" viewBox="0 0 36 34" fill="none" xmlns="http://www.w3.org/2000/svg">
<path d="M25.9508 13.175C26.2258 13.4347 26.3633 13.7653 26.3633 14.1667C26.3633 14.568 26.2258 14.8986 25.9508 15.1583L19.0508 21.675C18.9008 21.8167 18.7383 21.9172 18.5633 21.9767C18.3883 22.0353 18.2008 22.0646 18.0008 22.0646C17.8008 22.0646 17.6068 22.0292 17.4188 21.9583C17.2318 21.8875 17.0758 21.793 16.9508 21.675L10.0508 15.1583C9.77578 14.8986 9.63828 14.568 9.63828 14.1667C9.63828 13.7653 9.77578 13.4347 10.0508 13.175C10.3258 12.9153 10.6758 12.7854 11.1008 12.7854C11.5258 12.7854 11.8758 12.9153 12.1508 13.175L18.0008 18.7L23.8508 13.175C24.1258 12.9153 24.4758 12.7854 24.9008 12.7854C25.3258 12.7854 25.6758 12.9153 25.9508 13.175V13.175Z" fill="#6970FE"/>
</svg>
