<svg width="15" height="15" viewBox="0 0 15 15" fill="none" xmlns="http://www.w3.org/2000/svg">
<path fill-rule="evenodd" clip-rule="evenodd" d="M4.68736 15C4.56425 15 4.44234 14.9784 4.32859 14.9366C4.21485 14.8947 4.1115 14.8333 4.02444 14.7559C3.93738 14.6785 3.86833 14.5867 3.82121 14.4856C3.7741 14.3845 3.74985 14.2761 3.74985 14.1667C3.74985 14.0572 3.7741 13.9489 3.82121 13.8478C3.86833 13.7467 3.93738 13.6548 4.02444 13.5774C4.1115 13.5 4.21485 13.4386 4.32859 13.3968C4.44234 13.3549 4.56425 13.3333 4.68736 13.3333L13.125 13.3333L13.125 2.5C13.125 2.27899 13.0262 2.06702 12.8504 1.91074C12.6746 1.75446 12.4361 1.66667 12.1875 1.66667L4.68736 1.66667C4.43872 1.66667 4.20026 1.57887 4.02444 1.42259C3.84862 1.26631 3.74985 1.05435 3.74985 0.833335C3.74985 0.612321 3.84862 0.400359 4.02444 0.244078C4.20026 0.087798 4.43872 1.28092e-06 4.68736 1.25919e-06L12.1875 6.03508e-07C12.9334 5.38296e-07 13.6488 0.263392 14.1762 0.732233C14.7037 1.20107 15 1.83696 15 2.5L15 14.1667C15 14.3877 14.9012 14.5996 14.7254 14.7559C14.5496 14.9122 14.3111 15 14.0625 15L4.68736 15ZM3.08703 10.5892C3.21808 10.7056 3.38503 10.7849 3.56678 10.8171C3.74852 10.8493 3.93692 10.8328 4.10816 10.7699C4.27941 10.7069 4.42582 10.6003 4.52891 10.4634C4.632 10.3265 4.68714 10.1656 4.68736 10.0008L4.68736 8.33417L10.3124 8.33417C10.5611 8.33417 10.7995 8.24637 10.9754 8.09009C11.1512 7.93381 11.2499 7.72185 11.2499 7.50083C11.2499 7.27982 11.1512 7.06786 10.9754 6.91158C10.7995 6.7553 10.5611 6.6675 10.3124 6.6675L4.68736 6.6675L4.68736 5.00083C4.68732 4.83604 4.63232 4.67496 4.5293 4.53795C4.42628 4.40094 4.27988 4.29416 4.10859 4.2311C3.93731 4.16804 3.74884 4.15154 3.567 4.18368C3.38517 4.21582 3.21814 4.29516 3.08703 4.41167L0.27449 6.91167C0.098733 7.06794 -6.72242e-07 7.27986 -6.52924e-07 7.50083C-6.33606e-07 7.7218 0.0987331 7.93373 0.27449 8.09L3.08703 10.5892Z" fill="#898989"/>
</svg>
