<svg width="21" height="21" viewBox="0 0 21 21" fill="none" xmlns="http://www.w3.org/2000/svg">
<g clip-path="url(#clip0_436_105)">
<path d="M19.6122 10.2258C17.6464 6.59162 14.1989 4.39246 10.3839 4.39246C6.56891 4.39246 3.11557 6.59162 1.16724 10.2258L1.00391 10.5L1.15557 10.78C3.12141 14.4141 6.56891 16.6133 10.3839 16.6133C14.1989 16.6133 17.6522 14.4433 19.6122 10.78L19.7639 10.5L19.6122 10.2258ZM10.3839 15.4175C7.09974 15.4175 4.08391 13.5858 2.33391 10.5C4.08391 7.41412 7.09974 5.58246 10.3839 5.58246C13.6681 5.58246 16.6489 7.41996 18.4281 10.5C16.6489 13.5858 13.6622 15.4175 10.3839 15.4175Z" fill="#DDDDDD"/>
<path d="M10.5525 6.51585C9.76161 6.52163 8.99013 6.76166 8.33554 7.20563C7.68095 7.64961 7.17261 8.27761 6.87472 9.01033C6.57684 9.74304 6.50277 10.5476 6.66188 11.3224C6.82099 12.0972 7.20613 12.8074 7.76866 13.3634C8.3312 13.9195 9.04589 14.2963 9.82248 14.4464C10.5991 14.5965 11.4027 14.513 12.1319 14.2066C12.8611 13.9002 13.4831 13.3846 13.9195 12.7249C14.3558 12.0652 14.5868 11.291 14.5834 10.5C14.5811 9.97353 14.4749 9.45266 14.271 8.96726C14.067 8.48187 13.7693 8.0415 13.3948 7.67138C13.0204 7.30126 12.5766 7.00868 12.0888 6.81039C11.6011 6.6121 11.079 6.51201 10.5525 6.51585ZM10.5525 13.3525C9.99386 13.3468 9.44933 13.1761 8.98735 12.8618C8.52537 12.5476 8.16654 12.1039 7.95592 11.5864C7.7453 11.0689 7.69228 10.5007 7.80353 9.95317C7.91478 9.40565 8.18534 8.9032 8.58121 8.50894C8.97709 8.11467 9.48063 7.84617 10.0286 7.73716C10.5766 7.62814 11.1446 7.68348 11.6612 7.89621C12.1778 8.10894 12.6201 8.46958 12.9324 8.93284C13.2447 9.3961 13.4132 9.94132 13.4167 10.5C13.4183 10.876 13.3452 11.2486 13.2016 11.5962C13.0581 11.9437 12.847 12.2593 12.5806 12.5247C12.3141 12.79 11.9977 12.9998 11.6496 13.1419C11.3014 13.284 10.9285 13.3556 10.5525 13.3525Z" fill="#DDDDDD"/>
</g>
<defs>
<clipPath id="clip0_436_105">
<rect width="21" height="21" fill="white"/>
</clipPath>
</defs>
</svg>
