<svg width="256" height="256" viewBox="0 0 256 256" fill="none" xmlns="http://www.w3.org/2000/svg">
<path d="M227.46 214C210.94 185.44 184.46 165.94 153.78 158.91C168.358 152.937 180.411 142.087 187.878 128.215C195.344 114.342 197.763 98.3067 194.719 82.8488C191.675 67.391 183.358 53.4696 171.189 43.4632C159.02 33.4568 143.755 27.9863 128 27.9863C112.245 27.9863 96.9794 33.4568 84.8105 43.4632C72.6416 53.4696 64.3248 67.391 61.281 82.8488C58.2373 98.3067 60.6554 114.342 68.1222 128.215C75.5891 142.087 87.6413 152.937 102.22 158.91C71.5799 165.91 45.0599 185.44 28.5399 214C28.0617 214.914 27.9552 215.978 28.2426 216.969C28.5301 217.959 29.1893 218.801 30.0825 219.317C30.9757 219.834 32.0338 219.985 33.0359 219.739C34.0379 219.494 34.9064 218.871 35.4599 218C54.9999 184.19 89.6199 164 128 164C166.38 164 201 184.19 220.54 218C220.891 218.608 221.395 219.112 222.002 219.463C222.61 219.814 223.298 219.999 224 220C224.703 220.002 225.394 219.816 226 219.46C226.917 218.929 227.586 218.056 227.859 217.032C228.133 216.008 227.989 214.918 227.46 214ZM67.9999 96C67.9999 84.1331 71.5188 72.5328 78.1117 62.6658C84.7046 52.7989 94.0753 45.1085 105.039 40.5673C116.002 36.026 128.066 34.8378 139.705 37.1529C151.344 39.468 162.035 45.1825 170.426 53.5736C178.817 61.9648 184.532 72.6557 186.847 84.2946C189.162 95.9335 187.974 107.997 183.433 118.961C178.891 129.925 171.201 139.295 161.334 145.888C151.467 152.481 139.867 156 128 156C112.093 155.982 96.8421 149.654 85.594 138.406C74.3458 127.158 68.0184 111.907 67.9999 96Z" fill="#DDDDDD"/>
</svg>
