<svg width="29" height="29" viewBox="0 0 29 29" fill="none" xmlns="http://www.w3.org/2000/svg">
<path d="M22.4052 24.2525L15.8252 17.6725C15.2377 18.1425 14.562 18.5146 13.7983 18.7888C13.0345 19.063 12.2218 19.2 11.3602 19.2C9.22557 19.2 7.41921 18.461 5.94106 16.9828C4.46212 15.5039 3.72266 13.6971 3.72266 11.5625C3.72266 9.42797 4.46212 7.62121 5.94106 6.14227C7.41921 4.66412 9.22557 3.92505 11.3602 3.92505C13.4947 3.92505 15.3015 4.66412 16.7804 6.14227C18.2586 7.62121 18.9977 9.42797 18.9977 11.5625C18.9977 12.4242 18.8606 13.2369 18.5864 14.0007C18.3122 14.7644 17.9402 15.44 17.4702 16.0275L24.0795 22.6369C24.295 22.8523 24.4027 23.1167 24.4027 23.43C24.4027 23.7434 24.2852 24.0175 24.0502 24.2525C23.8347 24.468 23.5606 24.5757 23.2277 24.5757C22.8947 24.5757 22.6206 24.468 22.4052 24.2525ZM11.3602 16.85C12.8289 16.85 14.0775 16.3362 15.1061 15.3084C16.1338 14.2799 16.6477 13.0313 16.6477 11.5625C16.6477 10.0938 16.1338 8.84517 15.1061 7.81665C14.0775 6.78892 12.8289 6.27505 11.3602 6.27505C9.89141 6.27505 8.64277 6.78892 7.61426 7.81665C6.58652 8.84517 6.07266 10.0938 6.07266 11.5625C6.07266 13.0313 6.58652 14.2799 7.61426 15.3084C8.64277 16.3362 9.89141 16.85 11.3602 16.85Z" fill="#6970FE"/>
</svg>
